<svg width="20" height="20" viewBox="0 0 20 20" fill="none" xmlns="http://www.w3.org/2000/svg">
<path d="M10 0C12.7157 6.82792e-10 13.0566 0.0113862 14.124 0.0605469C17.759 0.227214 19.7771 2.2496 19.9404 5.87793C19.9887 6.94424 20 7.28455 20 10C20 12.7156 19.9886 13.0566 19.9395 14.123C19.7753 17.758 17.7514 19.7738 14.123 19.9404C13.0566 19.9888 12.7156 20 10 20C7.28443 20 6.94421 19.9888 5.87695 19.9404C2.24195 19.7738 0.226237 17.7547 0.0595703 14.123C0.0112486 13.0566 6.82735e-10 12.7156 0 10C0 7.28442 0.0113918 6.94422 0.0605469 5.87695C0.227214 2.24195 2.24626 0.226237 5.87793 0.0595703C6.94424 0.011254 7.28455 0 10 0ZM10 1.80273C7.33008 1.80273 7.01397 1.81285 5.95898 1.86035C3.24677 1.98376 1.98458 3.27009 1.86035 5.95898C1.81285 7.01398 1.80176 7.33007 1.80176 10C1.80176 12.6708 1.81202 12.9868 1.86035 14.041C1.98371 16.725 3.24256 18.0164 5.95898 18.1406C7.01314 18.189 7.33008 18.1992 10 18.1992C12.6717 18.1992 12.987 18.189 14.042 18.1406C16.7542 18.0172 18.0164 16.7292 18.1406 14.042C18.1881 12.9878 18.1982 12.6717 18.1982 10.001C18.1982 7.33098 18.189 7.01413 18.1406 5.95996C18.0173 3.27013 16.7518 1.98473 14.042 1.86133C12.987 1.81299 12.67 1.80273 10 1.80273ZM10 4.86523C12.8358 4.86528 15.1348 7.1642 15.1348 10C15.1347 12.8366 12.8358 15.1357 10 15.1357C7.1642 15.1357 4.86528 12.8358 4.86523 10C4.86523 7.16417 7.16417 4.86523 10 4.86523ZM10 6.66699C8.15917 6.66699 6.66699 8.15917 6.66699 10C6.66699 11.8417 8.15917 13.333 10 13.333C11.8408 13.333 13.333 11.8417 13.333 10C13.333 8.15917 11.8408 6.66699 10 6.66699ZM15.3389 3.46289C16.001 3.46314 16.5369 3.99995 16.5371 4.66211C16.5371 5.32446 16.0012 5.86206 15.3389 5.8623C14.6755 5.8623 14.1377 5.32461 14.1377 4.66211C14.1379 3.9998 14.6757 3.46289 15.3389 3.46289Z" fill="#FEFCF7"/>
</svg>
